<?xml version="1.0" standalone="no"?>
<!DOCTYPE svg PUBLIC "-//W3C//DTD SVG 20010904//EN"
 "http://www.w3.org/TR/2001/REC-SVG-20010904/DTD/svg10.dtd">
<svg version="1.0" xmlns="http://www.w3.org/2000/svg"
 width="1600.000000pt" height="660.000000pt" viewBox="0 0 1600.000000 660.000000"
 preserveAspectRatio="xMidYMid meet">
<metadata>
Created by potrace 1.16, written by Peter Selinger 2001-2019
</metadata>
<g transform="translate(0.000000,660.000000) scale(0.100000,-0.100000)"
fill="#000000" stroke="none">
<path d="M8489 5085 c-102 -19 -176 -48 -249 -96 -74 -50 -122 -105 -163 -189
-30 -62 -32 -71 -32 -180 0 -105 2 -120 28 -171 82 -168 251 -265 607 -348
125 -29 197 -59 235 -97 60 -60 56 -145 -10 -203 -45 -39 -104 -54 -191 -49
-125 8 -210 79 -235 196 -7 31 -16 61 -20 66 -7 8 -357 -8 -441 -20 -33 -5
-38 -9 -38 -32 0 -49 30 -155 61 -217 120 -244 333 -337 742 -322 174 6 265
25 374 80 255 129 368 428 254 673 -81 174 -229 257 -634 354 -221 53 -267 77
-267 140 0 63 55 108 145 117 125 13 217 -42 251 -149 10 -32 22 -58 28 -58
84 2 460 30 464 35 12 11 -20 131 -53 200 -61 128 -172 213 -332 256 -103 28
-408 36 -524 14z"/>
<path d="M3112 4265 l3 -816 250 0 250 0 3 326 2 325 45 0 c62 0 106 -20 144
-66 25 -29 307 -533 323 -577 5 -13 579 -14 576 -1 -2 7 -59 121 -128 254
-149 290 -218 384 -309 427 l-57 27 61 21 c118 42 214 129 267 242 25 53 32
82 36 157 8 156 -29 264 -122 354 -128 126 -226 141 -919 142 l-427 0 2 -815z
m869 453 c95 -41 117 -169 41 -241 -39 -37 -137 -57 -284 -57 l-118 0 0 161 0
162 163 -5 c112 -4 173 -10 198 -20z"/>
<path d="M3521 3165 c-181 -34 -297 -97 -377 -206 -107 -146 -113 -350 -15
-493 87 -126 237 -202 554 -282 161 -40 238 -73 267 -114 58 -81 21 -181 -82
-224 -22 -10 -67 -16 -110 -16 -90 0 -159 29 -206 86 -32 39 -62 116 -62 161
0 19 -5 23 -32 23 -78 -1 -450 -29 -456 -34 -10 -11 17 -144 40 -199 31 -75
103 -181 151 -223 105 -91 253 -134 493 -141 310 -10 480 37 621 170 213 201
225 535 27 716 -98 90 -299 171 -559 226 -213 45 -264 81 -235 169 18 57 68
81 165 81 66 0 88 -5 125 -25 51 -29 86 -76 102 -137 9 -37 14 -43 37 -42 93
1 443 27 448 33 13 12 -18 130 -52 201 -61 129 -176 215 -345 260 -89 24 -395
30 -499 10z"/>
<path d="M5453 3171 c-226 -36 -412 -152 -522 -326 -134 -212 -162 -611 -61
-873 63 -164 198 -320 331 -386 137 -67 207 -80 439 -80 170 -1 216 2 270 18
190 53 324 164 413 343 35 68 75 189 66 197 -3 3 -308 96 -431 132 -12 4 -18
-4 -23 -36 -11 -64 -71 -175 -116 -213 -91 -79 -266 -82 -370 -8 -79 56 -116
155 -125 341 -18 343 90 512 326 511 121 0 220 -66 257 -170 10 -28 21 -51 26
-51 4 0 98 20 209 45 111 25 210 45 220 45 26 0 23 12 -26 114 -100 211 -230
323 -435 378 -84 22 -352 34 -448 19z"/>
<path d="M9257 3164 c-157 -28 -302 -101 -404 -203 -92 -91 -146 -184 -189
-328 -23 -76 -27 -111 -31 -258 -6 -216 13 -324 81 -460 103 -205 251 -327
471 -387 111 -30 439 -33 558 -5 164 39 322 143 422 278 l41 56 33 -49 c58
-84 166 -176 255 -219 149 -71 212 -83 451 -83 201 0 214 1 300 28 199 61 339
172 435 347 l30 54 0 -207 0 -208 645 0 645 0 0 205 0 205 -385 0 -385 0 0
610 c0 400 -3 610 -10 610 -5 0 -118 0 -250 0 -132 0 -245 0 -251 0 -7 0 -9
-68 -7 -213 l3 -212 -32 63 c-89 178 -255 305 -473 364 -74 19 -109 22 -275
22 -164 0 -201 -3 -271 -22 -185 -50 -318 -137 -419 -274 l-42 -57 -38 54
c-103 151 -276 252 -492 290 -106 19 -311 18 -416 -1z m355 -402 c132 -64 188
-188 187 -412 0 -325 -98 -463 -330 -464 -73 0 -93 4 -142 27 -78 39 -132 103
-160 191 -19 62 -22 92 -21 236 0 140 3 174 21 228 37 111 98 176 195 208 64
21 192 13 250 -14z m1471 -6 c107 -52 159 -143 177 -310 20 -174 -14 -371 -76
-453 -81 -106 -265 -141 -402 -76 -78 37 -133 114 -160 223 -31 128 -23 344
18 454 34 89 105 156 200 187 14 5 61 7 106 6 64 -3 93 -9 137 -31z"/>
<path d="M6774 3151 c-2 -2 -4 -370 -4 -818 l0 -813 255 0 255 0 0 330 0 330
265 0 265 0 0 -330 0 -330 260 0 260 0 0 815 0 815 -260 0 -260 0 0 -280 0
-280 -265 0 -265 0 -2 280 -3 281 -248 2 c-137 1 -251 0 -253 -2z"/>
</g>
</svg>
