<?xml version="1.0" standalone="no"?>
<!DOCTYPE svg PUBLIC "-//W3C//DTD SVG 20010904//EN"
 "http://www.w3.org/TR/2001/REC-SVG-20010904/DTD/svg10.dtd">
<svg version="1.0" xmlns="http://www.w3.org/2000/svg"
 width="512.000000pt" height="512.000000pt" viewBox="0 0 512.000000 512.000000"
 preserveAspectRatio="xMidYMid meet">
<metadata>
Created by potrace 1.16, written by Peter Selinger 2001-2019
</metadata>
<g transform="translate(0.000000,512.000000) scale(0.100000,-0.100000)"
fill="#000000" stroke="none">
<path d="M4651 4718 c-19 -5 -251 -92 -515 -193 -265 -101 -1255 -479 -2201
-840 -946 -361 -1742 -668 -1768 -683 -64 -35 -124 -94 -148 -145 -24 -55 -25
-149 0 -202 25 -55 108 -127 183 -159 35 -15 267 -85 517 -156 249 -71 455
-131 456 -132 1 -2 113 -322 249 -713 136 -390 260 -732 274 -759 45 -83 106
-142 189 -183 69 -34 82 -37 162 -37 102 0 175 23 254 80 29 21 177 153 330
293 153 141 281 257 285 258 4 2 194 -148 422 -332 287 -232 437 -346 485
-370 170 -85 342 -60 461 67 93 99 72 10 470 1975 362 1783 365 1799 362 1903
-3 97 -6 110 -38 168 -65 121 -158 173 -308 171 -48 0 -103 -5 -121 -11z m159
-352 c0 -51 -703 -3533 -726 -3594 -9 -24 -27 -50 -40 -59 -23 -14 -27 -14
-72 8 -26 13 -373 287 -772 608 -399 321 -726 584 -726 585 -1 1 352 377 785
838 434 460 794 850 801 867 18 45 8 114 -24 155 -30 41 -82 60 -140 53 -28
-3 -247 -110 -696 -339 -1645 -842 -1912 -978 -1923 -978 -18 -1 -877 244
-877 250 0 3 521 204 1158 447 636 243 1607 614 2157 824 550 210 1014 385
1030 389 47 11 65 -4 65 -54z m-1662 -1273 c-14 -16 -251 -269 -528 -563 -276
-293 -509 -548 -516 -565 -8 -16 -57 -205 -109 -420 -53 -214 -99 -398 -103
-408 -5 -11 -72 168 -207 555 -109 314 -195 573 -190 575 6 2 384 194 840 428
457 233 832 424 834 425 3 0 -7 -12 -21 -27z m-645 -1604 c89 -71 163 -133
164 -137 1 -4 -116 -115 -259 -246 -143 -131 -258 -230 -255 -220 3 10 45 180
93 377 49 196 90 357 92 357 2 0 76 -59 165 -131z"/>
</g>
</svg>
